<svg width="657.9px" height="121.4px" xmlns="http://www.w3.org/2000/svg" viewBox="-78.94687499999998 14.300000000000004 657.89375 121.39999999999999" style="background: rgba(0, 0, 0, 0)" preserveAspectRatio="xMidYMid"><defs><linearGradient id="editing-gradow-gradient" x1="0" x2="1" y1="0.5" y2="0.5" gradientUnits="objectBoundingBox"><stop offset="0" stop-color="#0005ff"></stop><stop offset="1" stop-color="#ff0029"></stop></linearGradient><filter id="editing-gradow-filter" x="-100%" y="-100%" width="300%" height="300%"><feFlood flood-color="#fffcd9" result="flood"></feFlood><feComposite operator="in" in2="SourceAlpha" in="flood" result="shadow"></feComposite><feOffset dx="-4" dy="-4" in="SourceGraphic" result="offset-1"></feOffset><feOffset dx="4" dy="4" in="shadow" result="offset-2"></feOffset><feMerge><feMergeNode in="offset-2"></feMergeNode><feMergeNode in="offset-1"></feMergeNode></feMerge></filter></defs><g filter="url(#editing-gradow-filter)"><g transform="matrix(1.3,0,0,2,-42.9,253.6)"><path d="M 4 -71.6 L -10 -71.6 L -1.8 -113.8 L 12.2 -113.8 L 4 -71.6 Z M 59.7 -70.3 L 59.7 -70.3 L 59.7 -70.3 Q 52 -70.3 52 -76.3 L 52 -76.3 L 52 -76.3 Q 52 -79 53.1 -84 L 53.1 -84 L 53.1 -84 Q 54.2 -89.1 54.6 -91.2 L 54.6 -91.2 L 54.6 -91.2 Q 55.5 -95.9 55.5 -97.3 L 55.5 -97.3 L 55.5 -97.3 Q 55.5 -100.6 53.1 -100.6 L 53.1 -100.6 L 53.1 -100.6 Q 51.5 -100.6 49.9 -98.4 L 49.9 -98.4 L 49.9 -98.4 Q 48.4 -96.2 47.7 -91.8 L 47.7 -91.8 L 43.7 -71.6 L 31.3 -70.3 L 34.7 -87.7 L 34.7 -87.7 Q 35.3 -90.6 35.8 -93.9 L 35.8 -93.9 L 35.8 -93.9 Q 36.3 -97.1 36.3 -97.6 L 36.3 -97.6 L 36.3 -97.6 Q 36.3 -100.6 34.1 -100.6 L 34.1 -100.6 L 34.1 -100.6 Q 32.7 -100.6 31.1 -98.4 L 31.1 -98.4 L 31.1 -98.4 Q 29.5 -96.2 28.6 -91.8 L 28.6 -91.8 L 24.7 -71.6 L 12.1 -70.3 L 18.8 -104.2 L 29.2 -105.5 L 28.1 -99.1 L 28.1 -99.1 Q 29.8 -102.5 32.9 -104 L 32.9 -104 L 32.9 -104 Q 35.9 -105.5 40.7 -105.5 L 40.7 -105.5 L 40.7 -105.5 Q 43.5 -105.5 45.3 -104.2 L 45.3 -104.2 L 45.3 -104.2 Q 47.1 -102.8 47.6 -100.7 L 47.6 -100.7 L 47.6 -100.7 Q 48.7 -102.9 51.5 -104.2 L 51.5 -104.2 L 51.5 -104.2 Q 54.3 -105.5 57.7 -105.5 L 57.7 -105.5 L 57.7 -105.5 Q 61.1 -105.5 62.8 -104.8 L 62.8 -104.8 L 62.8 -104.8 Q 64.5 -104 65.6 -102.8 L 65.6 -102.8 L 65.6 -102.8 Q 67.3 -100.6 67.3 -96.5 L 67.3 -96.5 L 67.3 -96.5 Q 67.3 -92.5 65.6 -84.1 L 65.6 -84.1 L 65.6 -84.1 Q 64.7 -80 64.7 -78.5 L 64.7 -78.5 L 64.7 -78.5 Q 64.7 -77 65.5 -76.1 L 65.5 -76.1 L 65.5 -76.1 Q 66.4 -75.2 67.7 -75.1 L 67.7 -75.1 L 67.7 -75.1 Q 67 -72.9 64.8 -71.6 L 64.8 -71.6 L 64.8 -71.6 Q 62.6 -70.3 59.7 -70.3 Z M 75.4 -73.5 L 75.4 -73.5 L 75.4 -73.5 Q 73.9 -75.2 73.2 -77.8 L 73.2 -77.8 L 73.2 -77.8 Q 72.5 -80.4 72.5 -84.7 L 72.5 -84.7 L 72.5 -84.7 Q 72.5 -89 74 -92.9 L 74 -92.9 L 74 -92.9 Q 75.5 -96.8 78.2 -99.6 L 78.2 -99.6 L 78.2 -99.6 Q 83.7 -105.5 92.8 -105.5 L 92.8 -105.5 L 92.8 -105.5 Q 96 -105.5 98.4 -104.4 L 98.4 -104.4 L 109.3 -105.5 L 104.6 -80.6 L 104.6 -80.6 Q 104.4 -79.8 104.4 -78.4 L 104.4 -78.4 L 104.4 -78.4 Q 104.4 -77 105.3 -76.1 L 105.3 -76.1 L 105.3 -76.1 Q 106.1 -75.2 107.4 -75.1 L 107.4 -75.1 L 107.4 -75.1 Q 106.8 -72.9 104.4 -71.6 L 104.4 -71.6 L 104.4 -71.6 Q 102.1 -70.3 99.5 -70.3 L 99.5 -70.3 L 99.5 -70.3 Q 96.9 -70.3 95.1 -71.3 L 95.1 -71.3 L 95.1 -71.3 Q 93.3 -72.3 92.8 -74 L 92.8 -74 L 92.8 -74 Q 91.8 -72.4 89.6 -71.3 L 89.6 -71.3 L 89.6 -71.3 Q 87.4 -70.3 84.5 -70.3 L 84.5 -70.3 L 84.5 -70.3 Q 81.6 -70.3 79.3 -71.1 L 79.3 -71.1 L 79.3 -71.1 Q 76.9 -71.9 75.4 -73.5 Z M 88.9 -99.5 L 88.9 -99.5 L 88.9 -99.5 Q 88.2 -98.3 87.5 -96.4 L 87.5 -96.4 L 87.5 -96.4 Q 86.9 -94.4 85.8 -89.2 L 85.8 -89.2 L 85.8 -89.2 Q 84.8 -84 84.8 -80.3 L 84.8 -80.3 L 84.8 -80.3 Q 84.8 -76.6 85.3 -75.5 L 85.3 -75.5 L 85.3 -75.5 Q 85.9 -74.4 86.9 -74.4 L 86.9 -74.4 L 86.9 -74.4 Q 89 -74.4 90.5 -76.4 L 90.5 -76.4 L 90.5 -76.4 Q 92 -78.3 92.6 -81.8 L 92.6 -81.8 L 96 -100.5 L 96 -100.5 Q 94.6 -101.7 93 -101.7 L 93 -101.7 L 93 -101.7 Q 91.5 -101.7 90.6 -101.2 L 90.6 -101.2 L 90.6 -101.2 Q 89.6 -100.7 88.9 -99.5 Z M 117.1 -98.3 L 117.1 -98.3 L 117.1 -98.3 Q 119.3 -101.4 122.6 -103.5 L 122.6 -103.5 L 122.6 -103.5 Q 125.8 -105.5 129.9 -105.5 L 129.9 -105.5 L 129.9 -105.5 Q 133.9 -105.5 135.8 -104.2 L 135.8 -104.2 L 148.4 -105.5 L 144 -80.9 L 144 -80.9 Q 141.8 -68.4 137 -63.5 L 137 -63.5 L 137 -63.5 Q 132.5 -58.8 123.7 -58.8 L 123.7 -58.8 L 123.7 -58.8 Q 117 -58.8 113.1 -60.9 L 113.1 -60.9 L 113.1 -60.9 Q 109.3 -63 109.3 -66.5 L 109.3 -66.5 L 109.3 -66.5 Q 109.3 -69.2 111.3 -70.7 L 111.3 -70.7 L 111.3 -70.7 Q 113.2 -72.2 116.3 -72.2 L 116.3 -72.2 L 116.3 -72.2 Q 119 -72.2 121 -71 L 121 -71 L 121 -71 Q 122.3 -70.3 122.8 -69.4 L 122.8 -69.4 L 122.8 -69.4 Q 121.4 -68.1 121.4 -66 L 121.4 -66 L 121.4 -66 Q 121.4 -63.3 123.9 -63.3 L 123.9 -63.3 L 123.9 -63.3 Q 128.2 -63.3 130.6 -73.4 L 130.6 -73.4 L 130.6 -73.4 Q 131.4 -76.1 131.9 -78.9 L 131.9 -78.9 L 131.9 -78.9 Q 129 -75.4 122.5 -75.4 L 122.5 -75.4 L 122.5 -75.4 Q 118 -75.4 115.4 -77.5 L 115.4 -77.5 L 115.4 -77.5 Q 112.7 -79.7 112.7 -84.8 L 112.7 -84.8 L 112.7 -84.8 Q 112.7 -88 113.8 -91.7 L 113.8 -91.7 L 113.8 -91.7 Q 114.9 -95.3 117.1 -98.3 Z M 125.4 -84.7 L 125.4 -84.7 L 125.4 -84.7 Q 125.4 -80.3 127.6 -80.3 L 127.6 -80.3 L 127.6 -80.3 Q 129.2 -80.3 130.6 -82 L 130.6 -82 L 130.6 -82 Q 131.8 -83.3 132.2 -85.3 L 132.2 -85.3 L 135.5 -101.7 L 135.5 -101.7 Q 135.2 -101.8 134.9 -101.9 L 134.9 -101.9 L 134.9 -101.9 Q 134.2 -102.2 133.4 -102.2 L 133.4 -102.2 L 133.4 -102.2 Q 129.5 -102.2 127.2 -95.8 L 127.2 -95.8 L 127.2 -95.8 Q 125.4 -90.8 125.4 -84.7 Z M 176.8 -82.4 L 176.8 -82.4 L 176.8 -82.4 Q 178.4 -81.3 178.4 -78.9 L 178.4 -78.9 L 178.4 -78.9 Q 178.4 -76.5 177.2 -75 L 177.2 -75 L 177.2 -75 Q 176 -73.5 174 -72.4 L 174 -72.4 L 174 -72.4 Q 169.9 -70.3 165.5 -70.3 L 165.5 -70.3 L 165.5 -70.3 Q 161 -70.3 158.5 -71.3 L 158.5 -71.3 L 158.5 -71.3 Q 155.9 -72.2 154.1 -74 L 154.1 -74 L 154.1 -74 Q 150.7 -77.4 150.7 -83.6 L 150.7 -83.6 L 150.7 -83.6 Q 150.7 -93.3 156 -99.2 L 156 -99.2 L 156 -99.2 Q 161.6 -105.5 171.4 -105.5 L 171.4 -105.5 L 171.4 -105.5 Q 177.5 -105.5 180.5 -103 L 180.5 -103 L 180.5 -103 Q 182.7 -101 182.7 -97.9 L 182.7 -97.9 L 182.7 -97.9 Q 182.7 -86.6 163.3 -86.6 L 163.3 -86.6 L 163.3 -86.6 Q 163 -85 163 -83.6 L 163 -83.6 L 163 -83.6 Q 163 -80.6 164.3 -79.5 L 164.3 -79.5 L 164.3 -79.5 Q 165.7 -78.4 168.1 -78.4 L 168.1 -78.4 L 168.1 -78.4 Q 170.5 -78.4 173.1 -79.5 L 173.1 -79.5 L 173.1 -79.5 Q 175.7 -80.6 176.8 -82.4 Z M 163.7 -89.4 L 163.7 -89.4 L 163.7 -89.4 Q 168.3 -89.4 170.9 -92.2 L 170.9 -92.2 L 170.9 -92.2 Q 173.5 -94.9 173.5 -99.2 L 173.5 -99.2 L 173.5 -99.2 Q 173.5 -100.7 173 -101.5 L 173 -101.5 L 173 -101.5 Q 172.4 -102.3 171.4 -102.3 L 171.4 -102.3 L 171.4 -102.3 Q 170.3 -102.3 169.3 -101.8 L 169.3 -101.8 L 169.3 -101.8 Q 168.4 -101.4 167.4 -100 L 167.4 -100 L 167.4 -100 Q 165.1 -96.8 163.7 -89.4 Z M 204.1 -94.1 L 204.1 -94.1 L 204.1 -94.1 Q 205 -96.4 205 -98.5 L 205 -98.5 L 205 -98.5 Q 205 -102.3 201.9 -102.3 L 201.9 -102.3 L 201.9 -102.3 Q 200.3 -102.3 199 -100.8 L 199 -100.8 L 199 -100.8 Q 197.7 -99.4 197.7 -97.6 L 197.7 -97.6 L 197.7 -97.6 Q 197.7 -96.3 198.7 -95.3 L 198.7 -95.3 L 198.7 -95.3 Q 200.2 -93.9 203.9 -91.6 L 203.9 -91.6 L 203.9 -91.6 Q 207.7 -89.3 209.1 -87.4 L 209.1 -87.4 L 209.1 -87.4 Q 210.6 -85.5 210.6 -82.9 L 210.6 -82.9 L 210.6 -82.9 Q 210.6 -80.3 209.3 -77.9 L 209.3 -77.9 L 209.3 -77.9 Q 208.1 -75.6 205.8 -73.9 L 205.8 -73.9 L 205.8 -73.9 Q 201 -70.3 193.4 -70.3 L 193.4 -70.3 L 193.4 -70.3 Q 189.2 -70.3 186 -72.5 L 186 -72.5 L 186 -72.5 Q 182.8 -74.6 182.8 -77.1 L 182.8 -77.1 L 182.8 -77.1 Q 182.8 -79.6 184.6 -81.1 L 184.6 -81.1 L 184.6 -81.1 Q 186.5 -82.5 189.1 -82.5 L 189.1 -82.5 L 189.1 -82.5 Q 191.8 -82.5 193.5 -81.5 L 193.5 -81.5 L 193.5 -81.5 Q 192.7 -79.4 192.7 -78 L 192.7 -78 L 192.7 -78 Q 192.7 -73.8 196.2 -73.8 L 196.2 -73.8 L 196.2 -73.8 Q 197.8 -73.8 198.8 -74.7 L 198.8 -74.7 L 198.8 -74.7 Q 199.8 -75.7 199.8 -77.4 L 199.8 -77.4 L 199.8 -77.4 Q 199.8 -80.6 194.3 -84.1 L 194.3 -84.1 L 194.3 -84.1 Q 189.8 -87 188.8 -88.2 L 188.8 -88.2 L 188.8 -88.2 Q 187.1 -90.2 187.1 -92.8 L 187.1 -92.8 L 187.1 -92.8 Q 187.1 -95.3 188.3 -97.8 L 188.3 -97.8 L 188.3 -97.8 Q 189.5 -100.2 191.8 -101.9 L 191.8 -101.9 L 191.8 -101.9 Q 196.4 -105.5 204.6 -105.5 L 204.6 -105.5 L 204.6 -105.5 Q 208.7 -105.5 211.2 -103.9 L 211.2 -103.9 L 211.2 -103.9 Q 213.7 -102.2 213.7 -99.4 L 213.7 -99.4 L 213.7 -99.4 Q 213.7 -96.6 212 -95 L 212 -95 L 212 -95 Q 210.3 -93.4 207.2 -93.4 L 207.2 -93.4 L 207.2 -93.4 Q 205.1 -93.4 204.1 -94.1 Z M 255.1 -92.2 L 268.1 -93.4 L 268.1 -93.4 Q 263.4 -83.2 263.4 -71.5 L 263.4 -71.5 L 263.4 -71.5 Q 261.7 -70.3 259.2 -70.3 L 259.2 -70.3 L 259.2 -70.3 Q 256.7 -70.3 255.1 -71.5 L 255.1 -71.5 L 255.1 -71.5 Q 253.5 -72.7 253.1 -73.9 L 253.1 -73.9 L 253.1 -73.9 Q 251.5 -72.2 249 -71.3 L 249 -71.3 L 249 -71.3 Q 246.4 -70.3 243.6 -70.3 L 243.6 -70.3 L 243.6 -70.3 Q 240.9 -70.3 238.5 -71.2 L 238.5 -71.2 L 238.5 -71.2 Q 236.1 -72.1 234.2 -74.1 L 234.2 -74.1 L 234.2 -74.1 Q 230.1 -78.4 230.1 -86.7 L 230.1 -86.7 L 230.1 -86.7 Q 230.1 -99.5 237 -107.2 L 237 -107.2 L 237 -107.2 Q 244 -115.1 256.5 -115.1 L 256.5 -115.1 L 256.5 -115.1 Q 265.1 -115.1 268.2 -110.6 L 268.2 -110.6 L 268.2 -110.6 Q 269.1 -109.2 269.1 -107.5 L 269.1 -107.5 L 269.1 -107.5 Q 269.1 -105.8 268.4 -104.4 L 268.4 -104.4 L 268.4 -104.4 Q 267.7 -103 266.5 -101.8 L 266.5 -101.8 L 266.5 -101.8 Q 263.8 -99.2 260.4 -99.2 L 260.4 -99.2 L 260.4 -99.2 Q 259 -99.2 257.8 -99.7 L 257.8 -99.7 L 257.8 -99.7 Q 258 -101.6 258 -103.9 L 258 -103.9 L 258 -103.9 Q 258 -106.1 257.8 -107.1 L 257.8 -107.1 L 257.8 -107.1 Q 257.7 -108.1 257.3 -109 L 257.3 -109 L 257.3 -109 Q 256.5 -110.7 254.6 -110.7 L 254.6 -110.7 L 254.6 -110.7 Q 252.8 -110.7 250.8 -108.7 L 250.8 -108.7 L 250.8 -108.7 Q 248.8 -106.8 247.2 -103.6 L 247.2 -103.6 L 247.2 -103.6 Q 243.7 -96.4 243.7 -87.8 L 243.7 -87.8 L 243.7 -87.8 Q 243.7 -83.8 245.2 -81 L 245.2 -81 L 245.2 -81 Q 246.9 -77.9 249.8 -77.9 L 249.8 -77.9 L 249.8 -77.9 Q 250.8 -77.9 251.8 -78.4 L 251.8 -78.4 L 251.8 -78.4 Q 252.7 -79 253.1 -79.3 L 253.1 -79.3 L 255.1 -92.2 Z M 274 -73.5 L 274 -73.5 L 274 -73.5 Q 272.5 -75.2 271.8 -77.8 L 271.8 -77.8 L 271.8 -77.8 Q 271.1 -80.4 271.1 -84.7 L 271.1 -84.7 L 271.1 -84.7 Q 271.1 -89 272.6 -92.9 L 272.6 -92.9 L 272.6 -92.9 Q 274.1 -96.8 276.8 -99.6 L 276.8 -99.6 L 276.8 -99.6 Q 282.3 -105.5 291.4 -105.5 L 291.4 -105.5 L 291.4 -105.5 Q 294.6 -105.5 297 -104.4 L 297 -104.4 L 307.9 -105.5 L 303.2 -80.6 L 303.2 -80.6 Q 303 -79.8 303 -78.4 L 303 -78.4 L 303 -78.4 Q 303 -77 303.9 -76.1 L 303.9 -76.1 L 303.9 -76.1 Q 304.7 -75.2 306 -75.1 L 306 -75.1 L 306 -75.1 Q 305.4 -72.9 303 -71.6 L 303 -71.6 L 303 -71.6 Q 300.7 -70.3 298.1 -70.3 L 298.1 -70.3 L 298.1 -70.3 Q 295.4 -70.3 293.7 -71.3 L 293.7 -71.3 L 293.7 -71.3 Q 291.9 -72.3 291.4 -74 L 291.4 -74 L 291.4 -74 Q 290.4 -72.4 288.2 -71.3 L 288.2 -71.3 L 288.2 -71.3 Q 286 -70.3 283.1 -70.3 L 283.1 -70.3 L 283.1 -70.3 Q 280.2 -70.3 277.8 -71.1 L 277.8 -71.1 L 277.8 -71.1 Q 275.5 -71.9 274 -73.5 Z M 287.5 -99.5 L 287.5 -99.5 L 287.5 -99.5 Q 286.7 -98.3 286.1 -96.4 L 286.1 -96.4 L 286.1 -96.4 Q 285.5 -94.4 284.4 -89.2 L 284.4 -89.2 L 284.4 -89.2 Q 283.4 -84 283.4 -80.3 L 283.4 -80.3 L 283.4 -80.3 Q 283.4 -76.6 283.9 -75.5 L 283.9 -75.5 L 283.9 -75.5 Q 284.5 -74.4 285.5 -74.4 L 285.5 -74.4 L 285.5 -74.4 Q 287.6 -74.4 289.1 -76.4 L 289.1 -76.4 L 289.1 -76.4 Q 290.6 -78.3 291.2 -81.8 L 291.2 -81.8 L 294.6 -100.5 L 294.6 -100.5 Q 293.2 -101.7 291.6 -101.7 L 291.6 -101.7 L 291.6 -101.7 Q 290.1 -101.7 289.1 -101.2 L 289.1 -101.2 L 289.1 -101.2 Q 288.2 -100.7 287.5 -99.5 Z M 326.7 -75.1 L 326.7 -75.1 L 326.7 -75.1 Q 324.7 -70.3 318.4 -70.3 L 318.4 -70.3 L 318.4 -70.3 Q 315.2 -70.3 313.1 -72.6 L 313.1 -72.6 L 313.1 -72.6 Q 311.4 -74.4 311.4 -76.5 L 311.4 -76.5 L 311.4 -76.5 Q 311.4 -81.3 313.7 -91.8 L 313.7 -91.8 L 318.4 -116.4 L 331.4 -117.7 L 325.1 -85.3 L 325.1 -85.3 Q 324.1 -80.6 324.1 -78.9 L 324.1 -78.9 L 324.1 -78.9 Q 324.1 -75.2 326.7 -75.1 Z M 347.4 -75.1 L 347.4 -75.1 L 347.4 -75.1 Q 345.4 -70.3 339.1 -70.3 L 339.1 -70.3 L 339.1 -70.3 Q 335.9 -70.3 333.8 -72.6 L 333.8 -72.6 L 333.8 -72.6 Q 332.2 -74.4 332.2 -76.5 L 332.2 -76.5 L 332.2 -76.5 Q 332.2 -81.3 334.4 -91.8 L 334.4 -91.8 L 339.1 -116.4 L 352.1 -117.7 L 345.9 -85.3 L 345.9 -85.3 Q 344.8 -80.6 344.8 -78.9 L 344.8 -78.9 L 344.8 -78.9 Q 344.8 -75.2 347.4 -75.1 Z M 378.8 -82.4 L 378.8 -82.4 L 378.8 -82.4 Q 380.4 -81.3 380.4 -78.9 L 380.4 -78.9 L 380.4 -78.9 Q 380.4 -76.5 379.2 -75 L 379.2 -75 L 379.2 -75 Q 377.9 -73.5 376 -72.4 L 376 -72.4 L 376 -72.4 Q 371.9 -70.3 367.4 -70.3 L 367.4 -70.3 L 367.4 -70.3 Q 363 -70.3 360.4 -71.3 L 360.4 -71.3 L 360.4 -71.3 Q 357.8 -72.2 356.1 -74 L 356.1 -74 L 356.1 -74 Q 352.7 -77.4 352.7 -83.6 L 352.7 -83.6 L 352.7 -83.6 Q 352.7 -93.3 358 -99.2 L 358 -99.2 L 358 -99.2 Q 363.6 -105.5 373.4 -105.5 L 373.4 -105.5 L 373.4 -105.5 Q 379.5 -105.5 382.5 -103 L 382.5 -103 L 382.5 -103 Q 384.7 -101 384.7 -97.9 L 384.7 -97.9 L 384.7 -97.9 Q 384.7 -86.6 365.3 -86.6 L 365.3 -86.6 L 365.3 -86.6 Q 365 -85 365 -83.6 L 365 -83.6 L 365 -83.6 Q 365 -80.6 366.3 -79.5 L 366.3 -79.5 L 366.3 -79.5 Q 367.6 -78.4 370.1 -78.4 L 370.1 -78.4 L 370.1 -78.4 Q 372.5 -78.4 375.1 -79.5 L 375.1 -79.5 L 375.1 -79.5 Q 377.7 -80.6 378.8 -82.4 Z M 365.7 -89.4 L 365.7 -89.4 L 365.7 -89.4 Q 370.3 -89.4 372.9 -92.2 L 372.9 -92.2 L 372.9 -92.2 Q 375.5 -94.9 375.5 -99.2 L 375.5 -99.2 L 375.5 -99.2 Q 375.5 -100.7 375 -101.5 L 375 -101.5 L 375 -101.5 Q 374.4 -102.3 373.3 -102.3 L 373.3 -102.3 L 373.3 -102.3 Q 372.2 -102.3 371.3 -101.8 L 371.3 -101.8 L 371.3 -101.8 Q 370.4 -101.4 369.4 -100 L 369.4 -100 L 369.4 -100 Q 367.1 -96.8 365.7 -89.4 Z M 406.9 -89.6 L 406.9 -89.6 L 406.9 -89.6 Q 409.2 -93.7 409.2 -97.8 L 409.2 -97.8 L 409.2 -97.8 Q 409.2 -100.6 407.3 -100.6 L 407.3 -100.6 L 407.3 -100.6 Q 405.7 -100.6 404.1 -98 L 404.1 -98 L 404.1 -98 Q 402.5 -95.3 401.9 -91.9 L 401.9 -91.9 L 398.6 -71.6 L 385.4 -70.3 L 391.9 -104.2 L 402.5 -105.5 L 401.3 -99.1 L 401.3 -99.1 Q 404.4 -105.5 411.5 -105.5 L 411.5 -105.5 L 411.5 -105.5 Q 415.2 -105.5 417.2 -103.6 L 417.2 -103.6 L 417.2 -103.6 Q 419.2 -101.7 419.2 -97.7 L 419.2 -97.7 L 419.2 -97.7 Q 419.2 -93.8 416.6 -91.3 L 416.6 -91.3 L 416.6 -91.3 Q 414 -88.8 409.6 -88.8 L 409.6 -88.8 L 409.6 -88.8 Q 407.7 -88.8 406.9 -89.6 Z M 440.6 -78.8 L 440.6 -78.8 L 440.6 -78.8 Q 437.3 -75.4 431.2 -75.4 L 431.2 -75.4 L 431.2 -75.4 Q 423.6 -75.4 422 -80.9 L 422 -80.9 L 422 -80.9 Q 421.5 -82.6 421.5 -84.5 L 421.5 -84.5 L 421.5 -84.5 Q 421.5 -86.3 421.8 -88.2 L 421.8 -88.2 L 424.9 -104.2 L 437.8 -105.5 L 434.3 -86.9 L 434.3 -86.9 Q 434.2 -86.1 434 -85.2 L 434 -85.2 L 434 -85.2 Q 433.8 -84.3 433.8 -83.3 L 433.8 -83.3 L 433.8 -83.3 Q 433.8 -82.4 434.1 -81.8 L 434.1 -81.8 L 434.1 -81.8 Q 434.5 -81.2 434.9 -80.8 L 434.9 -80.8 L 434.9 -80.8 Q 435.7 -80.3 437 -80.3 L 437 -80.3 L 437 -80.3 Q 438.4 -80.3 439.6 -82 L 439.6 -82 L 439.6 -82 Q 440.8 -83.6 441.4 -86.5 L 441.4 -86.5 L 444.9 -104.2 L 457.5 -105.5 L 452.7 -80.4 L 452.7 -80.4 Q 450.3 -68.1 445.5 -63.2 L 445.5 -63.2 L 445.5 -63.2 Q 443 -60.7 439.7 -59.7 L 439.7 -59.7 L 439.7 -59.7 Q 436.5 -58.7 432.3 -58.7 L 432.3 -58.7 L 432.3 -58.7 Q 425.6 -58.7 421.8 -60.8 L 421.8 -60.8 L 421.8 -60.8 Q 417.9 -63 417.9 -66.5 L 417.9 -66.5 L 417.9 -66.5 Q 417.9 -69.1 419.9 -70.6 L 419.9 -70.6 L 419.9 -70.6 Q 421.9 -72.1 425 -72.1 L 425 -72.1 L 425 -72.1 Q 427.7 -72.1 429.7 -71 L 429.7 -71 L 429.7 -71 Q 430.9 -70.3 431.5 -69.4 L 431.5 -69.4 L 431.5 -69.4 Q 430 -68.1 430 -66 L 430 -66 L 430 -66 Q 430 -63.1 432.6 -63.1 L 432.6 -63.1 L 432.6 -63.1 Q 436.8 -63.1 439.3 -72.9 L 439.3 -72.9 L 439.3 -72.9 Q 440 -75.8 440.6 -78.8 Z" fill="url(#editing-gradow-gradient)"></path></g></g><style>text {
  font-size: 64px;
  font-family: Arial Black;
  dominant-baseline: central;
  text-anchor: middle;
}</style></svg>